<?xml version="1.0" encoding="UTF-8" standalone="no"?>
<!DOCTYPE svg PUBLIC "-//W3C//DTD SVG 1.1//EN" "http://www.w3.org/Graphics/SVG/1.1/DTD/svg11.dtd">
<svg version="1.1" xmlns="http://www.w3.org/2000/svg" xmlns:xlink="http://www.w3.org/1999/xlink" preserveAspectRatio="xMidYMid meet" viewBox="0 0 40 40" width="40" height="40"><defs><path d="M40 20C40 31.04 31.04 40 20 40C8.96 40 0 31.04 0 20C0 8.96 8.96 0 20 0C31.04 0 40 8.96 40 20Z" id="b541QFlDx9"></path><path d="M13.41 24.45L9.81 31.26L16.96 27.55L17.93 27.55L17.93 38L17.35 37.93L16.06 37.69L14.79 37.36L13.57 36.94L12.38 36.44L11.25 35.86L10.15 35.2L9.11 34.47L8.13 33.68L7.2 32.81L6.34 31.88L5.54 30.9L4.81 29.86L4.15 28.77L3.57 27.63L3.07 26.44L2.65 25.22L2.32 23.96L2.2 23.28L13.41 23.28L13.41 24.45ZM37.41 25.22L36.99 26.44L36.49 27.63L35.91 28.77L35.26 29.86L34.53 30.9L33.73 31.88L32.86 32.81L31.94 33.68L30.95 34.47L29.91 35.2L28.82 35.86L27.68 36.44L26.5 36.94L25.27 37.36L24.01 37.69L23.2 37.84L23.2 27.55L24.06 27.55L31.18 31.31L27.42 24.06L27.42 23.19L37.89 23.19L37.74 23.96L37.41 25.22ZM23.94 22.43L23.94 24.24L16.88 24.24L16.88 16.96L23.94 16.96L23.94 22.43L23.94 22.43ZM16.76 13.65L9.64 9.88L13.41 17.14L13.41 18.01L2 18.01L2.08 17.3L2.32 16L2.65 14.74L3.07 13.52L3.57 12.33L4.15 11.19L4.81 10.1L5.54 9.06L6.34 8.07L7.2 7.15L8.13 6.28L9.11 5.49L10.15 4.76L11.25 4.1L12.38 3.52L13.57 3.02L14.79 2.6L16.06 2.27L17.35 2.03L17.62 2L17.62 13.65L16.76 13.65ZM26.5 3.02L27.68 3.52L28.82 4.1L29.91 4.76L30.95 5.49L31.94 6.28L32.86 7.15L33.73 8.07L34.53 9.06L35.26 10.1L35.91 11.19L36.49 12.33L36.99 13.52L37.41 14.74L37.74 16L37.98 17.3L38.05 17.92L27.42 17.92L27.42 16.75L31.02 9.94L23.87 13.65L22.89 13.65L22.89 2.06L24.01 2.27L25.27 2.6L26.5 3.02Z" id="a11EQQVojy"></path></defs><g><g><g><use xlink:href="#b541QFlDx9" opacity="1" fill="#ffffff" fill-opacity="1"></use></g><g><use xlink:href="#a11EQQVojy" opacity="1" fill="#000000" fill-opacity="1"></use></g></g></g></svg>