<?xml version="1.0" encoding="UTF-8" standalone="no"?>
<!DOCTYPE svg PUBLIC "-//W3C//DTD SVG 1.1//EN" "http://www.w3.org/Graphics/SVG/1.1/DTD/svg11.dtd">
<svg version="1.1" xmlns="http://www.w3.org/2000/svg" xmlns:xlink="http://www.w3.org/1999/xlink" preserveAspectRatio="xMidYMid meet" viewBox="0 0 40 40" width="40" height="40"><defs><path d="M40 20C40 31.04 31.04 40 20 40C8.96 40 0 31.04 0 20C0 8.96 8.96 0 20 0C31.04 0 40 8.96 40 20Z" id="j2VTy39vgt"></path><path d="M16.9 20.21L16.9 16.91L20.43 16.91L20.43 20.21L16.9 20.21ZM16.78 13.61L9.65 9.86L13.42 17.09L13.42 17.96L2 17.96L2.08 17.25L2.32 15.96L2.65 14.7L3.07 13.48L3.57 12.3L4.15 11.16L4.81 10.07L5.54 9.04L6.34 8.06L7.21 7.13L8.13 6.27L9.12 5.47L10.16 4.75L11.25 4.09L12.39 3.51L13.58 3.01L14.81 2.6L16.07 2.27L17.37 2.03L17.64 2L17.64 13.61L16.78 13.61Z" id="c21GnPVNTR"></path><path d="M19.95 20.21L19.95 16.91L23.48 16.91L23.48 20.21L19.95 20.21ZM24.31 2.26L25.57 2.59L26.8 3.01L27.98 3.51L29.12 4.09L30.22 4.74L31.26 5.47L32.24 6.27L33.17 7.13L34.04 8.05L34.84 9.03L35.57 10.07L36.22 11.16L36.81 12.29L37.31 13.47L37.73 14.7L38.06 15.95L38.3 17.25L38.38 17.96L26.96 17.96L26.96 17.09L30.73 9.85L23.6 13.61L22.74 13.61L22.74 1.99L23.01 2.02L24.31 2.26Z" id="cfQ7TI3bV"></path><path d="M9.68 30.34L16.81 26.58L17.66 26.58L17.66 38.2L17.39 38.17L16.1 37.93L14.83 37.6L13.61 37.18L12.42 36.68L11.28 36.1L10.19 35.45L9.15 34.72L8.16 33.92L7.23 33.06L6.37 32.14L5.57 31.16L4.84 30.12L4.18 29.03L3.6 27.9L3.1 26.71L2.68 25.49L2.35 24.24L2.11 22.94L2.03 22.23L13.44 22.23L13.44 23.1L9.68 30.34ZM20.45 23.28L16.92 23.28L16.92 19.98L20.45 19.98L20.45 23.28Z" id="a2Oi5LDvMT"></path><path d="M38.03 24.26L37.7 25.52L37.28 26.74L36.78 27.92L36.2 29.06L35.54 30.15L34.81 31.18L34.01 32.17L33.14 33.09L32.22 33.95L31.23 34.75L30.19 35.47L29.1 36.13L27.96 36.71L26.77 37.21L25.54 37.62L24.28 37.95L22.98 38.19L22.71 38.23L22.71 26.61L23.57 26.61L30.7 30.36L26.93 23.13L26.93 22.26L38.35 22.26L38.27 22.97L38.03 24.26ZM23.45 21.51L23.45 23.31L19.93 23.31L19.93 20.01L23.45 20.01L23.45 21.51L23.45 21.51Z" id="a4ykfIkMO"></path></defs><g><g><g><use xlink:href="#j2VTy39vgt" opacity="1" fill="#ffffff" fill-opacity="1"></use></g><g><use xlink:href="#c21GnPVNTR" opacity="1" fill="#008000" fill-opacity="1"></use></g><g><use xlink:href="#cfQ7TI3bV" opacity="1" fill="#800080" fill-opacity="1"></use></g><g><use xlink:href="#a2Oi5LDvMT" opacity="1" fill="#008000" fill-opacity="1"></use></g><g><use xlink:href="#a4ykfIkMO" opacity="1" fill="#800080" fill-opacity="1"></use></g></g></g></svg>